<?xml version="1.0" standalone="no"?><!DOCTYPE svg PUBLIC "-//W3C//DTD SVG 1.1//EN" "http://www.w3.org/Graphics/SVG/1.1/DTD/svg11.dtd"><svg t="1728629238198" class="icon" viewBox="0 0 1024 1024" version="1.1" xmlns="http://www.w3.org/2000/svg" p-id="11302" xmlns:xlink="http://www.w3.org/1999/xlink" width="200" height="200"><path d="M0 0h1024.2v1024H0V0z" fill="#5E9B5D" p-id="11303"></path><path d="M835 772l3.9-571.5L1023 328.2v693.9H300L146.9 772H835z" fill="#528252" p-id="11304"></path><path d="M850.1 503.1V219.4c0-11.9-9.6-21.5-21.5-21.5H168.4c-11.9 0-21.5 9.6-21.5 21.5v545.4c0 11.9 9.6 21.5 21.5 21.5h379.2v-23.9-4.6l-370.8 0.1V341.2l643.2 0.1v162.1m-642.9-277l643.2 0.7v86.2l-643.2-0.7v-86.2z" fill="#FFFDFD" p-id="11305"></path><path d="M228.1 274.3m-22.3 0a22.3 22.3 0 1 0 44.6 0 22.3 22.3 0 1 0-44.6 0Z" fill="#FCFCFC" p-id="11306"></path><path d="M299.4 274.3m-22.3 0a22.3 22.3 0 1 0 44.6 0 22.3 22.3 0 1 0-44.6 0Z" fill="#FCFCFC" p-id="11307"></path><path d="M371.1 274.3m-22.3 0a22.3 22.3 0 1 0 44.6 0 22.3 22.3 0 1 0-44.6 0Z" fill="#FCFCFC" p-id="11308"></path><path d="M547.2 772m-14.3 0a14.3 14.3 0 1 0 28.6 0 14.3 14.3 0 1 0-28.6 0Z" fill="#FCFCFC" p-id="11309"></path><path d="M820.1 503.8a15 15 0 1 0 30 0 15 15 0 1 0-30 0Z" fill="#FCFCFC" p-id="11310"></path><path d="M205.7 492.3V372.1h36.4l21.8 82 21.6-82H322v120.3h-22.6v-94.7l-23.9 94.7h-23.4l-23.8-94.7v94.7l-22.6-0.1zM346.1 492.3V372.1h89.1v20.3h-64.9v26.7h60.4v20.2h-60.4V472h67.2v20.2l-91.4 0.1zM452 453.2l23.6-2.3c1.4 7.9 4.3 13.7 8.6 17.5s10.3 5.6 17.6 5.6c7.8 0 13.7-1.7 17.7-5s6-7.2 6-11.6c0-2.9-0.8-5.3-2.5-7.2s-4.5-3.7-8.7-5.2c-2.9-1-9.4-2.8-19.4-5.3-13-3.2-22.2-7.2-27.4-11.9-7.4-6.6-11.1-14.7-11.1-24.2 0-6.2 1.7-11.9 5.2-17.2 3.5-5.3 8.5-9.4 15-12.2 6.5-2.8 14.4-4.2 23.6-4.2 15.1 0 26.5 3.3 34.1 9.9 7.7 6.6 11.7 15.4 12 26.5l-24.2 1.1c-1.1-6.2-3.3-10.6-6.7-13.4-3.4-2.7-8.6-4.1-15.4-4.1-7 0-12.6 1.4-16.6 4.4-2.6 1.9-3.8 4.4-3.8 7.5 0 2.9 1.2 5.3 3.7 7.3 3 2.6 10.5 5.3 22.3 8 11.9 2.8 20.6 5.7 26.2 8.6 5.7 2.9 10.1 7 13.3 12.2s4.8 11.6 4.8 19.2c0 6.9-1.9 13.4-5.7 19.3-3.8 6-9.3 10.5-16.2 13.4-7 2.9-15.7 4.4-26.2 4.4-15.2 0-26.9-3.5-35-10.5-8.3-6.9-13.2-17.1-14.8-30.6z" fill="#FFFDFD" p-id="11311"></path><path d="M197.2 605.4l19.7-1.9c1.2 6.6 3.6 11.5 7.2 14.6s8.5 4.6 14.7 4.6c6.5 0 11.4-1.4 14.7-4.1 3.3-2.8 5-6 5-9.7 0-2.4-0.7-4.4-2.1-6.1-1.4-1.7-3.8-3.1-7.3-4.3-2.4-0.8-7.8-2.3-16.2-4.4-10.8-2.7-18.5-6-22.8-9.9-6.1-5.5-9.1-12.2-9.1-20.2 0-5.1 1.4-9.9 4.3-14.3s7.1-7.8 12.5-10.2c5.4-2.3 12-3.5 19.7-3.5 12.6 0 22 2.8 28.4 8.3s9.7 12.9 10 22.1l-20.2 0.9c-0.9-5.2-2.7-8.9-5.6-11.1-2.8-2.3-7.1-3.4-12.8-3.4-5.9 0-10.5 1.2-13.8 3.6-2.1 1.5-3.2 3.6-3.2 6.2 0 2.4 1 4.4 3 6.1 2.6 2.1 8.8 4.4 18.6 6.7s17.1 4.7 21.8 7.2 8.4 5.9 11.1 10.2 4 9.6 4 16c0 5.7-1.6 11.1-4.8 16.1s-7.7 8.7-13.5 11.2c-5.8 2.4-13.1 3.7-21.8 3.7-12.7 0-22.4-2.9-29.2-8.8-6.9-5.8-10.9-14.4-12.3-25.6zM295.4 638V537.8h30.3l18.2 68.4 18-68.4h30.4V638h-18.8v-78.9L353.6 638h-19.5l-19.8-78.9V638h-18.9zM434.9 638v-83.3h-29.7v-17h79.6v17h-29.6V638h-20.3z" fill="#FFFFFF" p-id="11312"></path></svg>