<?xml version="1.0" standalone="no"?><!DOCTYPE svg PUBLIC "-//W3C//DTD SVG 1.1//EN" "http://www.w3.org/Graphics/SVG/1.1/DTD/svg11.dtd"><svg t="1728628693152" class="icon" viewBox="0 0 1024 1024" version="1.1" xmlns="http://www.w3.org/2000/svg" p-id="10053" xmlns:xlink="http://www.w3.org/1999/xlink" width="200" height="200"><path d="M0 0m128 0l768 0q128 0 128 128l0 768q0 128-128 128l-768 0q-128 0-128-128l0-768q0-128 128-128Z" fill="#1afa29" p-id="10054" data-spm-anchor-id="a313x.search_index.0.i13.43393a81Qwp05X" class="selected"></path><path d="M653.12256 271.36c0 8.48384-7.07072 15.36-15.79008 15.36-8.72448 0-15.7952-6.87616-15.7952-15.36s7.07072-15.36 15.7952-15.36c8.71936 0 15.79008 6.87616 15.79008 15.36zM684.70784 286.72c8.72448 0 15.7952-6.87616 15.7952-15.36s-7.07072-15.36-15.7952-15.36c-8.71936 0-15.79008 6.87616-15.79008 15.36s7.07072 15.36 15.79008 15.36zM747.8784 271.36c0 8.48384-7.07072 15.36-15.79008 15.36-8.72448 0-15.7952-6.87616-15.7952-15.36s7.07072-15.36 15.7952-15.36c8.71936 0 15.79008 6.87616 15.79008 15.36z" fill="#FFFFFF" p-id="10055"></path><path d="M760.32 517.12a28.16 28.16 0 1 0 0-56.32 28.16 28.16 0 0 0 0 56.32z m0-10.24a17.92 17.92 0 0 0 14.49984-28.45696l-25.0368 25.0368c2.95936 2.1504 6.59968 3.42016 10.53696 3.42016z m0-35.84c2.80576 0 5.46304 0.64512 7.82848 1.792l-23.95136 23.9616A17.92 17.92 0 0 1 760.32 471.04z" fill="#FFFFFF" p-id="10056"></path><path d="M747.52 619.52a5.12 5.12 0 1 0 0 10.24h25.6a5.12 5.12 0 1 0 0-10.24h-25.6zM747.52 650.24a5.12 5.12 0 1 0 0 10.24h25.6a5.12 5.12 0 1 0 0-10.24h-25.6z" fill="#FFFFFF" p-id="10057"></path><path d="M542.72 204.8a30.72 30.72 0 0 1 30.72-30.72h312.32a30.72 30.72 0 0 1 30.72 30.72v163.84a30.72 30.72 0 0 1-30.72 30.72h-15.36v378.88a20.48 20.48 0 0 1-20.48 20.48h-46.08v20.48h30.72v25.6h-143.36v-25.6h30.72v-20.48H291.84v20.48h30.72v25.6H179.2v-25.6h30.72v-20.48H148.48a20.48 20.48 0 0 1-20.48-20.48V291.84a20.48 20.48 0 0 1 20.48-20.48h394.24V204.8z m51.2 143.36h271.36V225.28h-271.36v122.88z m-48.90112 32.1536a40.77056 40.77056 0 0 1-4.85888-19.3536V322.56H179.2v424.96h146.7904V478.91456a20.48 20.48 0 0 1 20.48-20.48h332.7232a20.48 20.48 0 0 1 20.48 20.48V747.52H819.2V401.92h-238.08a40.7808 40.7808 0 0 1-19.38432-4.86912 30.81728 30.81728 0 0 1-16.7168-16.73728z m103.45472 134.44096a5.12 5.12 0 0 0-5.12-5.12H382.31552a5.12 5.12 0 0 0-5.12 5.12V747.52h271.27808v-232.76544z" fill="#FFFFFF" p-id="10058"></path></svg>