<svg xmlns="http://www.w3.org/2000/svg" xmlns:xlink="http://www.w3.org/1999/xlink" fill="none" version="1.1" width="235" height="28.25" viewBox="0 0 235 28.25"><g><g><g><path d="M109.79585321044922,2.3445988498961925C109.79585321044922,1.7155588498961925,109.79585321044922,0.9149688498961925,109.79585321044922,0.8005998498961926C109.79585321044922,0.45748484989619254,109.50995321044923,0.05718884989619255,109.05245321044922,0.05718884989619255C106.25041321044922,0.05718884989619255,97.27230521044922,0.05718884989619255,97.10075621044922,0.05718884989619255C96.75764021044922,0.05718884989619255,96.35735321044922,0.34311584989619254,96.35735321044922,0.8005998498961926C96.35735321044922,1.1437188498961925,96.35735321044922,1.6583788498961924,96.35735321044922,2.3445988498961925C96.35735321044922,2.8020888498961924,96.75765721044922,3.0880188498961925,97.10075621044922,3.0880188498961925Q97.27230521044922,3.0880188498961925,97.61542321044922,3.0880188498961925L97.61542321044922,21.730388849896194Q97.32949421044921,21.730388849896194,97.10075621044922,21.730388849896194C96.75764021044922,21.730388849896194,96.35735321044922,22.01638884989619,96.35735321044922,22.47388884989619C96.35735321044922,23.160088849896194,96.35735321044922,23.331588849896193,96.35735321044922,23.960688849896194C96.35735321044922,24.47528884989619,96.81482921044922,24.70408884989619,97.10075621044922,24.70408884989619Q97.32949421044921,24.70408884989619,105.50701321044922,24.70408884989619Q105.50701321044922,26.70558884989619,105.50701321044922,27.39178884989619C105.50701321044922,27.849288849896194,105.90731321044922,28.135188849896192,106.25041321044922,28.135188849896192C106.42195321044922,28.135188849896192,107.16535321044921,28.135188849896192,107.79445321044922,28.135188849896192C108.25185321044921,28.135188849896192,108.53785321044921,27.792088849896192,108.53785321044921,27.39178884989619Q108.53785321044921,27.105888849896193,108.53785321044921,24.70408884989619Q108.65225321044922,24.70408884989619,109.05245321044922,24.70408884989619C109.45275321044922,24.70408884989619,109.79585321044922,24.36098884989619,109.79585321044922,23.960688849896194C109.79585321044922,23.388788849896194,109.79585321044922,22.70258884989619,109.79585321044922,22.416688849896193C109.79585321044922,22.01638884989619,109.45275321044922,21.673288849896192,109.05245321044922,21.673288849896192Q108.65215321044921,21.673288849896192,108.53785321044921,21.673288849896192L108.53785321044921,3.0308388498961927Q108.82375321044921,3.0308388498961927,109.05245321044922,3.0308388498961927C109.39555321044922,3.1451988498961927,109.79585321044922,2.8020888498961924,109.79585321044922,2.3445988498961925ZM104.70638321044922,21.730388849896194C104.02015321044922,21.730388849896194,102.07585321044922,21.730388849896194,101.38964321044922,21.730388849896194C100.98933321044922,21.730388849896194,100.64623321044922,21.387288849896194,100.64623321044922,20.92988884989619C100.64623321044922,20.643888849896193,100.64623321044922,18.928388849896194,100.64623321044922,18.299288849896193C100.64623321044922,17.841788849896194,101.04654321044922,17.555888849896192,101.38964321044922,17.555888849896192C101.61837321044922,17.555888849896192,104.02017321044922,17.555888849896192,104.70638321044922,17.555888849896192C105.16386321044922,17.555888849896192,105.44978321044923,17.956188849896193,105.44978321044923,18.299288849896193C105.44978321044923,18.47088884989619,105.44978321044923,20.758288849896193,105.44978321044923,20.92988884989619C105.44980321044922,21.387288849896194,105.16387321044922,21.730388849896194,104.70638321044922,21.730388849896194ZM104.70638321044922,14.525088849896193C104.02015321044922,14.525088849896193,101.61837321044922,14.525088849896193,101.38964321044922,14.525088849896193C100.98933321044922,14.525088849896193,100.64623321044922,14.239188849896193,100.64623321044922,13.781688849896193C100.64623321044922,13.610088849896192,100.64623321044922,11.780188849896193,100.64623321044922,11.151188849896192C100.64623321044922,10.693688849896192,101.04654321044922,10.407688849896193,101.38964321044922,10.407688849896193C101.73275321044922,10.407688849896193,104.07736321044922,10.407688849896193,104.70638321044922,10.407688849896193C105.10669321044922,10.407688849896193,105.44978321044923,10.750888849896192,105.44978321044923,11.151188849896192C105.44978321044923,11.551488849896193,105.44978321044923,13.667288849896192,105.44978321044923,13.781688849896193C105.44980321044922,14.067588849896193,105.22106321044922,14.525088849896193,104.70638321044922,14.525088849896193ZM104.70638321044922,7.262548849896192C103.44830321044923,7.262548849896192,101.67556321044921,7.262548849896192,101.38964321044922,7.262548849896192C100.98933321044922,7.262548849896192,100.64623321044922,6.9194288498961924,100.64623321044922,6.519138849896192C100.64623321044922,5.546988849896192,100.64623321044922,4.002978849896193,100.64623321044922,3.8886088498961926C100.64623321044922,3.4883088498961925,100.98935321044922,3.1451988498961927,101.38964321044922,3.1451988498961927C101.84711321044922,3.1451988498961927,103.44831321044921,3.1451988498961927,104.70638321044922,3.1451988498961927C105.16386321044922,3.1451988498961927,105.44978321044923,3.5454888498961927,105.44978321044923,3.8886088498961926C105.44978321044923,4.117348849896192,105.44978321044923,5.604168849896192,105.44978321044923,6.519138849896192C105.44980321044922,6.976618849896193,105.10669321044922,7.262548849896192,104.70638321044922,7.262548849896192Z" fill="#ffffff" fill-opacity="1"/></g><g><path d="M110.0818217271127,14.810988849896193C110.0818217271127,14.696688849896193,110.0818217271127,13.953188849896193,110.0818217271127,13.266988849896192C110.0818217271127,12.809488849896193,110.42493727551269,12.523588849896193,110.8252242755127,12.523588849896193Q111.2255242755127,12.523588849896193,116.4865742755127,12.523588849896193L116.4865742755127,6.690688849896192Q111.2827042755127,6.690688849896192,110.8252242755127,6.690688849896192C110.42492027551269,6.690688849896192,110.0818217271127,6.347578849896193,110.0818217271127,5.947278849896192C110.0818217271127,5.661358849896192,110.0818217271127,4.689208849896192,110.0818217271127,4.460458849896193C110.0818217271127,4.060158849896193,110.42493727551269,3.6598688498961924,110.8252242755127,3.6598688498961924Q111.4542642755127,3.6598688498961924,112.31204427551269,3.6598688498961924Q112.31204427551269,1.4296388498961925,112.31204427551269,0.8005998498961926C112.31204427551269,0.34311584989619254,112.7123542755127,0.05718884989619255,113.0554542755127,0.05718884989619255C113.2269942755127,0.05718884989619255,113.9704142755127,0.05718884989619255,114.5994642755127,0.05718884989619255C114.99976427551269,0.05718884989619255,115.3428642755127,0.4003048498961925,115.3428642755127,0.8005998498961926Q115.3428642755127,0.9721578498961926,115.3428642755127,3.6598688498961924L120.7183042755127,3.6598688498961924Q120.7183042755127,1.4868188498961925,120.7183042755127,0.8005998498961926C120.7183042755127,0.34311584989619254,121.1186042755127,0.05718884989619255,121.46170427551269,0.05718884989619255C121.8048042755127,0.05718884989619255,122.3195042755127,0.05718884989619255,123.0057042755127,0.05718884989619255C123.4632042755127,0.05718884989619255,123.74910427551269,0.45748484989619254,123.74910427551269,0.8005998498961926Q123.74910427551269,1.0293378498961925,123.74910427551269,3.6598688498961924Q124.4925042755127,3.6598688498961924,125.1787042755127,3.6598688498961924C125.6362042755127,3.6598688498961924,125.9221042755127,4.002978849896193,125.9221042755127,4.403278849896193C125.9221042755127,4.517648849896193,125.9221042755127,5.489798849896193,125.9221042755127,5.947278849896192C125.9221042755127,6.347578849896193,125.57900427551269,6.690688849896192,125.1787042755127,6.690688849896192Q124.7784042755127,6.690688849896192,119.5173842755127,6.690688849896192L119.5173842755127,12.523588849896193Q124.4925042755127,12.523588849896193,125.1787042755127,12.523588849896193C125.6362042755127,12.523588849896193,125.9221042755127,12.923888849896192,125.9221042755127,13.266988849896192C125.9221042755127,13.438588849896192,125.9221042755127,14.582288849896193,125.9221042755127,14.810988849896193C125.9221042755127,15.154088849896192,125.6362042755127,15.554388849896192,125.1787042755127,15.554388849896192Q124.5497042755127,15.554388849896192,119.63174427551269,15.554388849896192C121.69040427551269,21.272988849896194,123.6919042755127,24.01788884989619,125.57900427551269,25.104388849896193C125.69340427551269,25.16158884989619,125.9793042755127,25.390288849896194,125.9793042755127,25.790588849896192C125.9793042755127,26.190888849896194,125.9793042755127,26.81988884989619,125.9793042755127,27.448988849896192C125.9793042755127,28.020788849896192,125.4075042755127,28.36398884989619,124.9500042755127,28.135188849896192C121.2329042755127,26.648388849896193,118.8883442755127,21.844788849896194,118.03056427551269,19.500188849896194C117.11559427551269,21.959188849896194,114.77099427551269,26.70558884989619,111.1111342755127,28.135188849896192C110.6536582755127,28.306788849896193,110.0818042755127,28.020788849896192,110.0818042755127,27.448988849896192C110.0818042755127,26.762788849896193,110.0818042755127,25.962188849896194,110.0818042755127,25.790588849896192C110.0818042755127,25.447488849896192,110.3105422755127,25.218788849896193,110.42492027551269,25.16158884989619C112.54078427551269,23.903488849896192,114.4278942755127,21.04418884989619,116.3721942755127,15.554388849896192Q111.39706427551269,15.554388849896192,110.8252072755127,15.554388849896192C110.42492027551269,15.554388849896192,110.0818217271127,15.211288849896192,110.0818217271127,14.810988849896193Z" fill="#ffffff" fill-opacity="1"/></g></g><g><g><path d="M9.66433,0L8.29189,0C7.72003,0,7.26255,0.457485,7.26255,1.02934L7.26255,7.26254L1.02935,7.26254C0.457493,7.26254,0.00000872579,7.72002,0.00000872579,8.29188L0.00000872579,9.72151C0.00000872579,10.2934,0.457493,10.7508,1.02935,10.7508L7.26255,10.7508L7.26255,18.6424Q1.94431,20.7583,0.629042,21.273C0.343116,21.3873,0,21.6733,0,22.2451L0,23.9607C0,24.5325,0.629042,25.1616,1.48682,24.8185L7.31973,22.4738L7.31973,27.0487C7.31973,27.6205,7.77721,28.078,8.34907,28.078L9.72151,28.078C10.2934,28.078,10.7508,27.6205,10.7508,27.0487L10.7508,0.972158C10.6937,0.457485,10.2362,0,9.66433,0Z" fill="#ffffff" fill-opacity="1"/></g><g><path d="M26.133708732910158,19.21429757452607C25.561848732910157,19.21429757452607,25.104368732910157,19.67179757452607,25.104368732910157,20.24359757452607C25.104368732910157,21.10139757452607,25.104368732910157,22.187897574526072,25.104368732910157,22.58819757452607C25.104368732910157,23.274497574526073,24.932808732910157,23.78909757452607,24.646888732910156,24.13219757452607C24.360958732910156,24.47529757452607,23.846288732910157,24.646897574526072,23.102878732910156,24.70409757452607C22.702588732910158,24.761297574526072,22.416658732910157,24.761297574526072,22.130728732910157,24.761297574526072C21.901998732910158,24.761297574526072,21.616068732910158,24.761297574526072,21.101398732910155,24.70409757452607C20.586728732910156,24.646897574526072,20.186428732910155,24.47529757452607,19.957688732910157,24.13219757452607C19.728948732910155,23.846297574526073,19.671758732910156,23.388797574526073,19.671758732910156,22.759797574526072L19.671758732910156,13.72449757452607L26.41963873291016,9.321227574526072C26.648338732910155,9.149667574526072,26.934338732910156,8.863737574526072,26.934338732910156,8.463447574526072L26.934338732910156,6.805067574526071C26.934338732910156,6.118847574526072,26.133708732910158,5.432627574526071,25.333108732910155,5.947287574526071L19.671758732910156,9.664337574526071L19.671758732910156,1.0865375745260715C19.671758732910156,0.5146825745260715,19.214278732910156,0.05719757452607155,18.642418732910155,0.05719757452607155L17.269978732910158,0.05719757452607155C16.698123732910155,0.05719757452607155,16.240638732910156,0.5146825745260715,16.240638732910156,1.0865375745260715L16.240638732910156,23.44599757452607C16.240638732910156,24.646897574526072,16.355007732910156,25.619097574526073,16.640934732910157,26.24809757452607C16.869672732910157,26.877097574526072,17.269978732910158,27.27739757452607,17.784638732910157,27.56339757452607C18.356498732910158,27.849297574526073,19.214278732910156,28.02079757452607,20.300798732910156,28.13519757452607C20.758278732910156,28.192397574526073,21.387308732910157,28.192397574526073,22.245088732910155,28.192397574526073C23.160058732910155,28.192397574526073,23.903468732910156,28.13519757452607,24.360948732910156,28.13519757452607C25.390288732910157,28.077997574526073,26.248038732910157,27.90649757452607,26.819938732910156,27.620497574526073C27.391738732910156,27.39179757452607,27.73493873291016,26.991497574526072,28.020838732910157,26.419697574526072C28.306738732910155,25.847797574526073,28.478338732910156,24.989997574526072,28.53543873291016,23.960697574526073C28.649838732910155,22.645397574526072,28.592638732910157,21.272997574526073,28.592638732910157,20.35799757452607C28.592638732910157,19.728997574526073,28.19233873291016,19.32869757452607,27.563338732910154,19.32869757452607L26.133708732910158,19.21429757452607Z" fill="#ffffff" fill-opacity="1"/></g></g><g><g><g><path d="M31.509136199951172,22.1307L31.509136199951172,20.8155C31.509136199951172,20.2436,31.96662119995117,19.7861,32.53847619995117,19.7861L48.95063619995118,18.3565L48.95063619995118,1.02934C48.95063619995118,0.457485,49.40813619995117,0,49.98003619995117,0L51.23813619995117,0C51.80993619995117,0,52.26743619995117,0.457485,52.26743619995117,1.02934L52.26743619995117,18.1278L59.18683619995117,17.4987C59.75873619995117,17.4987,60.21613619995117,17.9562,60.21613619995117,18.5281L60.21613619995117,19.8433C60.21613619995117,20.4152,59.75873619995117,20.8727,59.18683619995117,20.8727L52.26743619995117,21.5017L52.26743619995117,27.2202C52.26743619995117,27.7921,51.80993619995117,28.2496,51.23813619995117,28.2496L49.92283619995117,28.2496C49.35093619995117,28.2496,48.89353619995117,27.7921,48.89353619995117,27.2202L48.89353619995117,21.7304L32.48129419995117,23.1601C31.96662119995117,23.1601,31.509136199951172,22.7026,31.509136199951172,22.1307Z" fill="#ffffff" fill-opacity="1"/></g></g><g><g><path d="M40.20130672958374,15.039746828460693L34.71151072958374,11.608646828460694C34.25402672958374,11.265546828460693,33.91091972958374,10.579286828460694,34.31121572958374,9.950256828460693L34.76869972958374,9.206846828460694C35.22618672958374,8.463436828460694,36.08396672958374,8.520626828460692,36.54144672958374,8.863726828460694L42.03124672958374,12.123246828460694C42.54591672958374,12.409246828460693,42.83183672958374,13.152646828460693,42.48872672958374,13.838846828460694L42.03124672958374,14.582246828460693C41.74531672958374,14.982546828460693,41.05908672958374,15.554446828460692,40.20130672958374,15.039746828460693ZM43.17495672958374,7.720026828460694L37.79953672958374,4.231716828460693C37.28486672958374,3.8885968284606935,36.99894672958374,3.202376828460693,37.34205672958374,2.5733368284606932L37.68517672958374,1.8871188284606935C38.19983672958374,1.0865268284606935,39.00042672958374,1.0865268284606935,39.51511672958374,1.4296338284606933L45.004926729583744,4.803566828460694C45.63392672958374,5.2038668284606935,45.69112672958374,5.947276828460693,45.40522672958374,6.4619368284606935L44.94772672958374,7.262526828460693C44.77612672958374,7.777216828460693,43.97554672958374,8.291876828460694,43.17495672958374,7.720026828460694Z" fill="#ffffff" fill-opacity="1"/></g></g></g><g><path d="M166.75248529980468,27.73485245513916C166.6952960998047,27.73485245513916,166.6381072998047,27.67775245513916,166.6381072998047,27.56335245513916L166.6381072998047,8.74935245513916L171.4988672998047,8.74935245513916L171.4988672998047,27.50615245513916Q171.4988672998047,27.620552455139162,171.38448729980468,27.67775245513916L166.75248529980468,27.67775245513916L166.75248529980468,27.73485245513916Z" fill="#ffffff" fill-opacity="1"/></g><g><path d="M166.63815307617188,5.318243471450805L166.63815307617188,0.6290424714508056C166.63815307617188,0.5718535714508056,166.69534187617188,0.5146734714508057,166.75253107617186,0.5146734714508057L171.32736307617188,0.5146734714508057C171.38455307617187,0.5146734714508057,171.4417330761719,0.5718622714508057,171.4417330761719,0.6290424714508056L171.4417330761719,5.318243471450805L166.63815307617188,5.318243471450805Z" fill="#E60020" fill-opacity="1"/></g><g><path d="M218.10497072753907,27.734875870847702C217.70467072753905,27.734875870847702,217.13277072753905,27.6776758708477,216.56092072753907,27.277375870847703C215.98906072753906,26.8770758708477,215.58876072753907,26.4196758708477,215.18845072753908,25.2187758708477Q214.95970072753906,24.475375870847703,211.07110072753906,13.095475870847702C209.06961072753907,7.205345870847702,207.01095472753906,1.143706870847702,206.83937072753906,0.629033870847702C206.83937072753906,0.571844870847702,206.83937072753906,0.571844870847702,206.89654212753905,0.5146646708477021C206.89654212753905,0.457475870847702,206.95371372753905,0.457475870847702,207.01091972753906,0.457475870847702L211.81450072753907,0.457475870847702C211.92888072753905,0.457475870847702,211.98605072753907,0.457475870847702,212.04326072753906,0.571844870847702L212.21481072753906,1.086509870847702C214.90253072753907,9.092455870847703,218.96267072753906,21.1013758708477,219.13427072753908,21.558875870847704C219.47727072753906,22.359475870847703,220.22077072753905,22.8741758708477,221.02137072753905,22.8741758708477C221.82197072753905,22.8741758708477,222.56537072753906,22.359475870847703,222.85127072753906,21.616075870847702C223.02277072753907,21.158575870847702,229.88507072753907,0.571844870847702,229.88507072753907,0.5146646708477021Q229.94227072753907,0.457475870847702,229.99947072753906,0.457475870847702L234.86017072753907,0.457475870847702Q234.91737072753907,0.457475870847702,234.97457072753906,0.5146646708477021C234.97457072753906,0.571853870847702,235.03177072753905,0.571853870847702,234.97457072753906,0.629033870847702C234.91737072753907,0.800591870847702,227.36897072753905,23.045675870847703,226.68267072753906,25.2187758708477C226.39677072753906,26.133675870847703,225.93927072753905,26.7627758708477,225.25307072753907,27.277375870847703C224.73837072753906,27.6776758708477,224.22377072753906,27.734875870847702,223.82347072753907,27.734875870847702L218.10497072753907,27.734875870847702Z" fill="#ffffff" fill-opacity="1"/></g><g><path d="M134.09966852734374,27.67768460292816C134.04247932734376,27.67768460292816,133.98529052734375,27.620484602928162,133.98529052734375,27.56338460292816L133.98529052734375,0.6290426029281616C133.98529052734375,0.5146734029281617,134.04247932734376,0.4574846029281616,134.09966852734374,0.4574846029281616L157.25969052734376,0.4574846029281616C160.69089052734375,0.5718536029281616,162.23489052734374,3.4311246029281617,162.17769052734374,5.375424602928161L162.17769052734374,9.664334602928161C162.17769052734374,10.808084602928162,162.00609052734376,12.123284602928162,160.69089052734375,13.438584602928161L160.06179052734376,14.12478460292816L160.74809052734375,14.753784602928162C161.43429052734376,15.440084602928161,162.23489052734374,16.583784602928162,162.23489052734374,18.242184602928162L162.23489052734374,22.75978460292816C162.23489052734374,25.50468460292816,160.00469052734374,27.73488460292816,157.31689052734376,27.73488460292816L134.09966852734374,27.73488460292816L134.09966852734374,27.67768460292816ZM140.21849052734376,16.52658460292816C139.53226052734374,16.52658460292816,138.78886052734376,17.04128460292816,138.78886052734376,17.95618460292816L138.78886052734376,21.50168460292816C138.78886052734376,22.30228460292816,139.41790052734376,22.931284602928162,140.21849052734376,22.931284602928162L154.17169052734374,22.931284602928162C155.71569052734375,22.931284602928162,157.31689052734376,21.73048460292816,157.31689052734376,19.786184602928163C157.31689052734376,18.013384602928163,155.88729052734374,16.64098460292816,154.17169052734374,16.64098460292816L140.21849052734376,16.64098460292816L140.21849052734376,16.52658460292816ZM140.21849052734376,5.318244602928162C139.87537052734376,5.318244602928162,139.47509052734375,5.4897946029281615,139.24633052734376,5.718534602928162C138.96041052734375,6.004464602928161,138.84603052734374,6.3475746029281614,138.84603052734374,6.690684602928162L138.84603052734374,10.23617460292816C138.84603052734374,10.922384602928162,139.36069052734376,11.665784602928161,140.27566052734375,11.665784602928161L154.22889052734376,11.665784602928161C156.17319052734376,11.665784602928161,157.37409052734375,10.007434602928162,157.37409052734375,8.52061460292816C157.37409052734375,6.976614602928161,156.17319052734376,5.375424602928161,154.22889052734376,5.375424602928161L140.21849052734376,5.375424602928161L140.21849052734376,5.318244602928162Z" fill="#ffffff" fill-opacity="1"/></g><g><path d="M176.0737140685547,20.12928158721924Q176.0165252685547,20.12928158721924,176.0165252685547,20.014881587219236L176.0165252685547,8.692181587219238L180.4769752685547,8.692181587219238L180.4769752685547,20.072081587219238Q180.4769752685547,20.12928158721924,180.41978526855468,20.18648158721924L176.0737140685547,20.18648158721924L176.0737140685547,20.12928158721924Z" fill="#ffffff" fill-opacity="1"/></g><g><path d="M180.5913705859375,26.87708160858154C178.0180305859375,26.87708160858154,175.9593505859375,24.818481608581543,175.9593505859375,22.245101608581543L175.9593505859375,14.124781608581543L180.4198005859375,19.728951608581543C180.5913505859375,21.04421160858154,181.6778905859375,22.416661608581542,183.4506205859375,22.416661608581542L202.4361505859375,22.416661608581542Q202.4933505859375,22.416661608581542,202.4933505859375,22.47385160858154L202.4933505859375,26.819981608581543Q202.4933505859375,26.87708160858154,202.4361505859375,26.87708160858154L180.5913705859375,26.87708160858154Z" fill="#ffffff" fill-opacity="1"/></g><g><path d="M176.0165252685547,5.890096071739197C176.0165252685547,3.3167560717391966,178.0752052685547,1.2580760717391968,180.6485452685547,1.2580760717391968L202.49332526855468,1.2580760717391968Q202.55052526855468,1.2580760717391968,202.55052526855468,1.3152648717391968L202.55052526855468,5.661356071739196Q202.55052526855468,5.718546071739197,202.49332526855468,5.718546071739197L183.50779526855467,5.718546071739197C181.6206852685547,5.718546071739197,180.4769752685547,7.319736071739197,180.4769752685547,8.749366071739196L180.4769752685547,8.806556071739196L176.0165252685547,14.124776071739197L176.0165252685547,5.890096071739197Z" fill="#ffffff" fill-opacity="1"/></g><g><g><g><path d="M78.34398002929687,3.6026788498961926C78.34398002929687,3.3739388498961924,78.34398002929687,2.6305288498961925,78.34398002929687,2.0586788498961925C78.34398002929687,1.6583788498961924,78.00088002929688,1.3152688498961926,77.60058002929688,1.3152688498961926Q77.20028002929688,1.3152688498961926,66.04910002929688,1.3152688498961926Q66.04910002929688,1.2580788498961926,66.04910002929688,0.8005998498961926C66.04910002929688,0.4003048498961925,65.70598002929688,0.05718884989619255,65.30569002929687,0.05718884989619255C64.73384002929687,0.05718884989619255,64.04761002929688,0.05718884989619255,63.761683029296876,0.05718884989619255C63.304207029296876,0.05718884989619255,63.018280029296875,0.45748484989619254,63.018280029296875,0.8005998498961926C63.018280029296875,1.0293378498961925,63.018280029296875,2.6305288498961925,63.018280029296875,3.6026788498961926C63.018280029296875,4.002978849896193,63.36139602929688,4.3460888498961925,63.761683029296876,4.3460888498961925Q64.16199002929687,4.3460888498961925,68.85118002929687,4.3460888498961925L68.85118002929687,6.004458849896192Q64.44790002929687,6.004458849896192,63.761683029296876,6.004458849896192C63.304207029296876,6.004458849896192,63.018280029296875,6.404758849896193,63.018280029296875,6.747878849896193C63.018280029296875,6.9194288498961924,63.018280029296875,7.8915788498961925,63.018280029296875,8.291878849896193C63.018280029296875,8.692168849896193,63.36139602929688,9.035288849896192,63.761683029296876,9.035288849896192Q64.27635002929688,9.035288849896192,68.56525002929688,9.035288849896192C67.47873002929687,10.293388849896193,65.82036002929688,10.979588849896192,63.761683029296876,11.437088849896192C63.189829029296874,11.551488849896193,63.018280029296875,11.951688849896193,63.018280029296875,12.180488849896193C63.018280029296875,12.466388849896193,63.018280029296875,13.152588849896192,63.018280029296875,13.724488849896192C63.018280029296875,14.239188849896193,63.532945029296876,14.525088849896193,63.81887202929688,14.467888849896193C67.59311002929688,13.953188849896193,69.25148002929687,12.237688849896193,70.45238002929688,10.579288849896193C71.48171002929688,12.981088849896192,75.99938002929687,14.296388849896193,77.65778002929687,14.467888849896193C78.11518002929688,14.525088849896193,78.40118002929688,14.067588849896193,78.40118002929688,13.724488849896192C78.40118002929688,13.438588849896192,78.40118002929688,12.752288849896193,78.40118002929688,12.237688849896193C78.40118002929688,11.780188849896193,77.94368002929687,11.437088849896192,77.65778002929687,11.379888849896192C75.82778002929687,11.093988849896192,74.05508002929687,10.350588849896193,72.85417002929688,9.035278849896192Q77.25748002929687,9.035278849896192,77.65778002929687,9.035278849896192C78.00088002929688,9.035278849896192,78.40118002929688,8.749348849896192,78.40118002929688,8.291868849896193C78.40118002929688,7.834378849896193,78.40118002929688,6.976598849896193,78.40118002929688,6.747868849896193C78.40118002929688,6.404748849896192,78.11518002929688,6.004458849896192,77.65778002929687,6.004458849896192Q76.97148002929687,6.004458849896192,71.88201002929688,6.004458849896192L71.88201002929688,4.346078849896193Q77.02868002929688,4.346078849896193,77.65778002929687,4.346078849896193C78.05798002929687,4.3460888498961925,78.34398002929687,3.9457988498961925,78.34398002929687,3.6026788498961926Z" fill="#ffffff" fill-opacity="1"/></g><g><path d="M88.5800938802719,15.32567773386836L66.22064388027191,15.32567773386836C64.96256388027192,15.32567773386836,63.70449388027191,16.35501773386836,63.70449388027191,17.84182773386836L63.70449388027191,25.67617773386836C63.70449388027191,27.22017773386836,64.96257388027192,28.192377733868362,66.22064388027191,28.192377733868362L88.5800938802719,28.192377733868362C90.06699388027191,28.192377733868362,91.15349388027191,26.93427773386836,91.15349388027191,25.67617773386836L91.15349388027191,17.84182773386836C91.15349388027191,16.69812773386836,90.18129388027191,15.32567773386836,88.5800938802719,15.32567773386836ZM88.1225938802719,24.418157733868362C88.1225938802719,24.81844773386836,87.77949388027191,25.218747733868362,87.32199388027192,25.218747733868362L67.53590388027192,25.218747733868362C66.90686388027191,25.218747733868362,66.73531388027192,24.64688773386836,66.73531388027192,24.47533773386836Q66.73531388027192,24.81844773386836,66.73531388027192,24.13221773386836C66.73531388027192,23.61755773386836,67.19278388027192,23.33162773386836,67.53590388027192,23.33162773386836C67.70745388027191,23.33162773386836,83.20469388027192,23.33162773386836,87.26489388027191,23.33162773386836C87.83669388027191,23.33162773386836,88.06539388027191,23.84628773386836,88.06539388027191,24.13221773386836Q88.1225938802719,24.30377773386836,88.1225938802719,24.418157733868362ZM87.32199388027192,20.30079773386836C86.69299388027191,20.30079773386836,71.59606388027191,20.30079773386836,67.59309388027191,20.30079773386836C67.02123388027191,20.30079773386836,66.79250388027191,19.78613773386836,66.79250388027191,19.50020773386836Q66.79250388027191,19.38583773386836,66.79250388027191,19.27146773386836C66.79250388027191,18.81398773386836,67.1356138802719,18.47087773386836,67.59309388027191,18.47087773386836L87.32199388027192,18.47087773386836C87.60799388027192,18.47087773386836,88.17979388027192,18.69961773386836,88.17979388027192,19.27146773386836Q88.17979388027192,19.443027733868362,88.17979388027192,19.55739773386836C88.17979388027192,19.67176773386836,88.0082938802719,20.30079773386836,87.32199388027192,20.30079773386836Z" fill="#ffffff" fill-opacity="1"/></g><g><path d="M89.38071130187988,0.05718884989619255L82.51847130187988,0.05718884989619255C81.08884130187988,0.05718884989619255,79.94513130187988,1.2008988498961926,79.94513130187988,2.6305288498961925L79.94513130187988,11.951788849896193C79.94513130187988,13.209788849896192,80.97446130187988,14.467888849896193,82.46128130187988,14.467888849896193L89.32353130187988,14.467888849896193C90.52443130187989,14.467888849896193,91.83963130187988,13.495788849896192,91.83963130187988,11.951788849896193L91.83963130187988,2.5733488498961927C91.89683130187989,1.3152688498961926,90.86753130187988,0.05718884989619255,89.38071130187988,0.05718884989619255ZM88.86605130187988,10.636488849896192C88.86605130187988,11.208288849896192,88.40857130187989,11.437088849896192,88.12265130187988,11.437088849896192L83.83374130187988,11.437088849896192C83.31908130187988,11.437088849896192,83.03315130187988,10.979588849896192,83.03315130187988,10.636488849896192L83.03315130187988,3.8314288498961924C83.03315130187988,3.4883088498961925,83.31908130187988,3.0880188498961925,83.83374130187988,3.0880188498961925L88.12265130187988,3.0880188498961925C88.40857130187989,3.0880188498961925,88.86605130187988,3.3167488498961926,88.86605130187988,3.8314288498961924L88.86605130187988,10.636488849896192Z" fill="#ffffff" fill-opacity="1"/></g></g></g></g></svg>